<?xml version="1.0" encoding="UTF-8" standalone="no"?>
<svg
   xmlns:dc="http://purl.org/dc/elements/1.1/"
   xmlns:cc="http://creativecommons.org/ns#"
   xmlns:rdf="http://www.w3.org/1999/02/22-rdf-syntax-ns#"
   xmlns:svg="http://www.w3.org/2000/svg"
   xmlns="http://www.w3.org/2000/svg"
   xmlns:sodipodi="http://sodipodi.sourceforge.net/DTD/sodipodi-0.dtd"
   xmlns:inkscape="http://www.inkscape.org/namespaces/inkscape"
   width="235.70866"
   height="368.65353"
   viewBox="0 0 235.70866 368.65353"
   version="1.1"
   id="svg2217"
   sodipodi:docname="DefaultTemplate_EventTicketPasses.svg"
   inkscape:version="0.92.4 (5da689c313, 2019-01-14)">
  <metadata
     id="metadata2223">
    <rdf:RDF>
      <cc:Work
         rdf:about="">
        <dc:format>image/svg+xml</dc:format>
        <dc:type
           rdf:resource="http://purl.org/dc/dcmitype/StillImage" />
        <dc:title />
      </cc:Work>
    </rdf:RDF>
  </metadata>
  <defs
     id="defs2221" />
  <sodipodi:namedview
     pagecolor="#ffffff"
     bordercolor="#666666"
     borderopacity="1"
     objecttolerance="10"
     gridtolerance="10"
     guidetolerance="10"
     inkscape:pageopacity="0"
     inkscape:pageshadow="2"
     inkscape:window-width="1720"
     inkscape:window-height="1376"
     id="namedview2219"
     showgrid="false"
     fit-margin-top="0"
     fit-margin-left="0"
     fit-margin-right="0"
     fit-margin-bottom="0"
     inkscape:zoom="4.290583"
     inkscape:cx="95.098162"
     inkscape:cy="232.73575"
     inkscape:window-x="1920"
     inkscape:window-y="27"
     inkscape:window-maximized="0"
     inkscape:current-layer="svg2217" />
  <path
     d="m 0.5,6.17995 v 0 C 0.5,3.043 3.0429993,0.5 6.179947,0.5 H 229.5287 c 1.50644,0 2.95114,0.5984216 4.01632,1.663619 1.06522,1.065197 1.66364,2.5099149 1.66364,4.016331 v 356.29367 c 0,3.13693 -2.543,5.67993 -5.67996,5.67993 H 6.1799473 C 3.0429997,368.15355 0.5,365.61055 0.5,362.47362 Z"
     id="path1869"
     inkscape:connector-curvature="0"
     style="fill:#f3f3f3;fill-opacity:0.57309995;fill-rule:evenodd;stroke:none;stroke-width:1" />
  <path
     d="m 0.5,6.17995 v 0 C 0.5,3.043 3.0429993,0.5 6.179947,0.5 H 229.5287 c 1.50644,0 2.95114,0.5984216 4.01632,1.663619 1.06522,1.065197 1.66364,2.5099149 1.66364,4.016331 v 356.29367 c 0,3.13693 -2.543,5.67993 -5.67996,5.67993 H 6.1799473 C 3.0429997,368.15355 0.5,365.61055 0.5,362.47362 Z"
     id="path1871"
     inkscape:connector-curvature="0"
     style="fill:none;fill-rule:evenodd;stroke:#f3f3f3;stroke-width:1;stroke-linejoin:round" />
  <path
     d="m 7.4136999,11.722876 v 0 c 0,-3.0497417 2.4723021,-5.522046 5.5220451,-5.522046 H 222.77355 c 1.46453,0 2.86907,0.5817852 3.90466,1.6173697 1.03558,1.0355844 1.61737,2.4401393 1.61737,3.9046763 V 358.88352 c 0,3.04974 -2.47229,5.52203 -5.52203,5.52203 H 12.935745 c -3.049744,0 -5.5220451,-2.47229 -5.5220451,-5.52203 z"
     id="path1873"
     inkscape:connector-curvature="0"
     style="fill:#ffffff;fill-rule:evenodd;stroke:none;stroke-width:1" />
  <path
     d="m 7.4136999,11.722876 v 0 c 0,-3.0497417 2.4723021,-5.522046 5.5220451,-5.522046 H 222.77355 c 1.46453,0 2.86907,0.5817852 3.90466,1.6173697 1.03558,1.0355844 1.61737,2.4401393 1.61737,3.9046763 V 358.88352 c 0,3.04974 -2.47229,5.52203 -5.52203,5.52203 H 12.935745 c -3.049744,0 -5.5220451,-2.47229 -5.5220451,-5.52203 z"
     id="path1875"
     inkscape:connector-curvature="0"
     style="fill:none;fill-rule:evenodd;stroke:#d9d9d9;stroke-width:2;stroke-linejoin:round" />
  <path
     d="m 23.281054,350.58821 h -1.828125 v -6.89063 c -0.666667,0.625 -1.458333,1.08854 -2.375,1.39063 v -1.67188 c 0.479167,-0.15625 1,-0.44792 1.5625,-0.875 0.5625,-0.4375 0.947917,-0.94792 1.15625,-1.53125 h 1.484375 z m 2.771851,-2.20313 1.765625,-0.20312 c 0.04167,0.36458 0.151041,0.63541 0.328125,0.8125 0.1875,0.16666 0.432291,0.25 0.734375,0.25 0.375,0 0.692708,-0.17188 0.953125,-0.51563 0.270833,-0.34375 0.442708,-1.0625 0.515625,-2.15625 -0.458334,0.53125 -1.03125,0.79688 -1.71875,0.79688 -0.75,0 -1.401042,-0.28646 -1.953125,-0.85938 -0.541667,-0.58333 -0.8125,-1.34375 -0.8125,-2.28125 0,-0.95833 0.286458,-1.73437 0.859375,-2.32812 0.572916,-0.59375 1.307291,-0.89063 2.203125,-0.89063 0.96875,0 1.760416,0.375 2.375,1.125 0.625,0.75 0.9375,1.97917 0.9375,3.6875 0,1.75 -0.322917,3.01042 -0.96875,3.78125 -0.645834,0.77083 -1.489584,1.15625 -2.53125,1.15625 -0.739584,0 -1.34375,-0.19792 -1.8125,-0.59375 -0.458334,-0.39583 -0.75,-0.98958 -0.875,-1.78125 z m 4.140625,-4 c 0,-0.59375 -0.135417,-1.05208 -0.40625,-1.375 -0.270834,-0.32292 -0.588542,-0.48437 -0.953125,-0.48437 -0.333334,0 -0.614584,0.13541 -0.84375,0.40625 -0.21875,0.26041 -0.328125,0.6927 -0.328125,1.29687 0,0.625 0.119791,1.08333 0.359375,1.375 0.25,0.28125 0.557291,0.42188 0.921875,0.42188 0.34375,0 0.635416,-0.13542 0.875,-0.40625 0.25,-0.28125 0.375,-0.69271 0.375,-1.23438 z"
     id="path1877"
     inkscape:connector-curvature="0"
     style="fill:#434343;fill-rule:nonzero;stroke:none;stroke-width:1" />
  <path
     d="m 96.878814,44.256691 v 0 c 0,-11.576237 9.384396,-20.960629 20.960636,-20.960629 v 0 c 5.55909,0 10.89051,2.208345 14.82139,6.139225 3.93089,3.930881 6.13924,9.262299 6.13924,14.821403 v 0 c 0,11.576237 -9.3844,20.96063 -20.96063,20.96063 v 0 c -11.57624,0 -20.960636,-9.384393 -20.960636,-20.96063 z"
     id="path1879"
     inkscape:connector-curvature="0"
     style="fill:#f3f3f3;fill-rule:evenodd;stroke:none;stroke-width:1" />
  <path
     d="m 96.878814,44.256691 v 0 c 0,-11.576237 9.384396,-20.960629 20.960636,-20.960629 v 0 c 5.55909,0 10.89051,2.208345 14.82139,6.139225 3.93089,3.930881 6.13924,9.262299 6.13924,14.821403 v 0 c 0,11.576237 -9.3844,20.96063 -20.96063,20.96063 v 0 c -11.57624,0 -20.960636,-9.384393 -20.960636,-20.96063 z"
     id="path1881"
     inkscape:connector-curvature="0"
     style="fill:none;fill-rule:evenodd;stroke:#d9d9d9;stroke-width:2;stroke-linejoin:round" />
  <path
     d="m 119.3832,49.05669 h -1.82812 v -6.890625 c -0.66667,0.625 -1.45833,1.088542 -2.375,1.390625 v -1.671875 c 0.47917,-0.15625 1,-0.447917 1.5625,-0.875 0.5625,-0.4375 0.94792,-0.947917 1.15625,-1.53125 h 1.48437 z"
     id="path1883"
     inkscape:connector-curvature="0"
     style="fill:#434343;fill-rule:nonzero;stroke:none;stroke-width:1" />
  <path
     d="m 83.318894,72.617927 v 0 c 0,-1.203163 0.975357,-2.17852 2.178528,-2.17852 h 64.713818 c 0.57778,0 1.1319,0.229523 1.54045,0.638077 0.40856,0.408554 0.63806,0.962669 0.63806,1.540443 v 8.713829 c 0,1.203163 -0.97535,2.17852 -2.17851,2.17852 H 85.497422 v 0 c -1.203171,0 -2.178528,-0.975357 -2.178528,-2.17852 z"
     id="path1885"
     inkscape:connector-curvature="0"
     style="fill:#f3f3f3;fill-rule:evenodd;stroke:none;stroke-width:1" />
  <path
     d="m 83.318894,72.617927 v 0 c 0,-1.203163 0.975357,-2.17852 2.178528,-2.17852 h 64.713818 c 0.57778,0 1.1319,0.229523 1.54045,0.638077 0.40856,0.408554 0.63806,0.962669 0.63806,1.540443 v 8.713829 c 0,1.203163 -0.97535,2.17852 -2.17851,2.17852 H 85.497422 v 0 c -1.203171,0 -2.178528,-0.975357 -2.178528,-2.17852 z"
     id="path1887"
     inkscape:connector-curvature="0"
     style="fill:none;fill-rule:evenodd;stroke:#cccccc;stroke-width:1;stroke-linejoin:round" />
  <path
     d="m 119.67659,78.639207 v 1.015625 h -3.84375 c 0.0417,-0.385417 0.16667,-0.75 0.375,-1.09375 0.20834,-0.34375 0.6198,-0.802083 1.23438,-1.375 0.48958,-0.458333 0.79167,-0.770833 0.90625,-0.9375 0.15625,-0.229167 0.23437,-0.453125 0.23437,-0.671875 0,-0.25 -0.0677,-0.4375 -0.20312,-0.5625 -0.13542,-0.135417 -0.31771,-0.203125 -0.54688,-0.203125 -0.22916,0 -0.41145,0.07292 -0.54687,0.21875 -0.13542,0.135417 -0.21354,0.359375 -0.23438,0.671875 l -1.09375,-0.109375 c 0.0625,-0.604167 0.26563,-1.036458 0.60938,-1.296875 0.34375,-0.260417 0.77604,-0.390625 1.29687,-0.390625 0.5625,0 1.00521,0.151042 1.32813,0.453125 0.32292,0.302083 0.48437,0.682292 0.48437,1.140625 0,0.260417 -0.0469,0.505208 -0.14062,0.734375 -0.0937,0.229167 -0.23958,0.473958 -0.4375,0.734375 -0.13542,0.166667 -0.375,0.411458 -0.71875,0.734375 -0.34375,0.3125 -0.5625,0.520833 -0.65625,0.625 -0.0937,0.104167 -0.16667,0.208333 -0.21875,0.3125 z"
     id="path1889"
     inkscape:connector-curvature="0"
     style="fill:#434343;fill-rule:nonzero;stroke:none;stroke-width:1" />
  <path
     d="m 88.901584,202.79931 v 0 c 0,-0.54796 0.444199,-0.99216 0.992142,-0.99216 h 55.370044 c 0.26312,0 0.51548,0.10454 0.70155,0.2906 0.18605,0.18605 0.29059,0.43842 0.29059,0.70156 v 3.96846 c 0,0.54794 -0.4442,0.99214 -0.99214,0.99214 H 89.893726 c -0.547943,0 -0.992142,-0.4442 -0.992142,-0.99214 z"
     id="path1891"
     inkscape:connector-curvature="0"
     style="fill:#f3f3f3;fill-rule:evenodd;stroke:none;stroke-width:1" />
  <path
     d="m 88.901584,202.79931 v 0 c 0,-0.54796 0.444199,-0.99216 0.992142,-0.99216 h 55.370044 c 0.26312,0 0.51548,0.10454 0.70155,0.2906 0.18605,0.18605 0.29059,0.43842 0.29059,0.70156 v 3.96846 c 0,0.54794 -0.4442,0.99214 -0.99214,0.99214 H 89.893726 c -0.547943,0 -0.992142,-0.4442 -0.992142,-0.99214 z"
     id="path1893"
     inkscape:connector-curvature="0"
     style="fill:none;fill-rule:evenodd;stroke:#cccccc;stroke-width:1;stroke-linejoin:round" />
  <path
     d="m 116.50646,207.46354 h -1.10937 v -4.14063 c -0.39583,0.375 -0.86458,0.65104 -1.40625,0.82813 v -0.98438 c 0.28125,-0.0937 0.58854,-0.27083 0.92187,-0.53125 0.34375,-0.27083 0.57813,-0.57812 0.70313,-0.92187 h 0.89062 z m 4.00782,0 h -1.10938 v -4.14063 c -0.39583,0.375 -0.86458,0.65104 -1.40625,0.82813 v -0.98438 c 0.28125,-0.0937 0.58854,-0.27083 0.92188,-0.53125 0.34375,-0.27083 0.57812,-0.57812 0.70312,-0.92187 h 0.89063 z"
     id="path1895"
     inkscape:connector-curvature="0"
     style="fill:#434343;fill-rule:nonzero;stroke:none;stroke-width:1" />
  <path
     d="m 20.835899,119.0408 v 0 c 0,-2.02654 1.64283,-3.66937 3.669365,-3.66937 h 61.732132 c 0.973175,0 1.906494,0.38659 2.594635,1.07473 0.688141,0.68814 1.074737,1.62146 1.074737,2.59464 v 14.67702 c 0,2.02652 -1.642837,3.66936 -3.669372,3.66936 H 24.505264 c -2.026535,0 -3.669365,-1.64284 -3.669365,-3.66936 z"
     id="path2053"
     inkscape:connector-curvature="0"
     style="fill:#f3f3f3;fill-rule:evenodd;stroke:none;stroke-width:1" />
  <path
     d="m 20.835899,119.0408 v 0 c 0,-2.02654 1.64283,-3.66937 3.669365,-3.66937 h 61.732132 c 0.973175,0 1.906494,0.38659 2.594635,1.07473 0.688141,0.68814 1.074737,1.62146 1.074737,2.59464 v 14.67702 c 0,2.02652 -1.642837,3.66936 -3.669372,3.66936 H 24.505264 c -2.026535,0 -3.669365,-1.64284 -3.669365,-3.66936 z"
     id="path2055"
     inkscape:connector-curvature="0"
     style="fill:none;fill-rule:evenodd;stroke:#cccccc;stroke-width:1;stroke-linejoin:round" />
  <path
     d="m 52.469824,126.52306 0.546875,-4.8125 h 5.3125 v 1.5625 h -3.765625 l -0.234375,2.03125 c 0.447917,-0.23959 0.921875,-0.35938 1.421875,-0.35938 0.90625,0 1.614583,0.28125 2.125,0.84375 0.510417,0.5625 0.765625,1.34375 0.765625,2.34375 0,0.61458 -0.130208,1.16667 -0.390625,1.65625 -0.260417,0.47917 -0.630208,0.85417 -1.109375,1.125 -0.479167,0.26042 -1.046875,0.39063 -1.703125,0.39063 -0.572917,0 -1.104167,-0.11459 -1.59375,-0.34375 -0.489583,-0.22917 -0.880208,-0.55209 -1.171875,-0.96875 -0.28125,-0.42709 -0.427083,-0.91146 -0.4375,-1.45313 h 1.859375 c 0.04167,0.39583 0.177083,0.70313 0.40625,0.92188 0.239583,0.21875 0.552083,0.32812 0.9375,0.32812 0.416667,0 0.739583,-0.15104 0.96875,-0.45312 0.239583,-0.30209 0.359375,-0.73438 0.359375,-1.29688 0,-0.54166 -0.135417,-0.95312 -0.40625,-1.23437 -0.260417,-0.29167 -0.635417,-0.4375 -1.125,-0.4375 -0.447917,0 -0.807292,0.11979 -1.078125,0.35937 l -0.1875,0.17188 z"
     id="path2057"
     inkscape:connector-curvature="0"
     style="fill:#434343;fill-rule:nonzero;stroke:none;stroke-width:1" />
  <path
     d="m 144.2769,119.03818 v 0 c 0,-2.02654 1.64284,-3.66937 3.66936,-3.66937 h 61.73213 c 0.97318,0 1.9065,0.38659 2.59464,1.07473 0.68814,0.68814 1.07474,1.62146 1.07474,2.59464 v 14.67702 c 0,2.02652 -1.64283,3.66936 -3.66938,3.66936 h -61.73213 c -2.02652,0 -3.66936,-1.64284 -3.66936,-3.66936 z"
     id="path2059"
     inkscape:connector-curvature="0"
     style="fill:#f3f3f3;fill-rule:evenodd;stroke:none;stroke-width:1" />
  <path
     d="m 144.2769,119.03818 v 0 c 0,-2.02654 1.64284,-3.66937 3.66936,-3.66937 h 61.73213 c 0.97318,0 1.9065,0.38659 2.59464,1.07473 0.68814,0.68814 1.07474,1.62146 1.07474,2.59464 v 14.67702 c 0,2.02652 -1.64283,3.66936 -3.66938,3.66936 h -61.73213 c -2.02652,0 -3.66936,-1.64284 -3.66936,-3.66936 z"
     id="path2061"
     inkscape:connector-curvature="0"
     style="fill:none;fill-rule:evenodd;stroke:#cccccc;stroke-width:1;stroke-linejoin:round" />
  <polygon
     id="polygon2063"
     points="181.5827,121.20793 181.5827,122.25481 177.91083,130.67668 175.92645,130.67668 179.59833,122.72356 174.87958,122.72356 174.87958,121.20793 "
     style="fill:#434343;fill-rule:nonzero;stroke:none;stroke-width:1"
     transform="translate(0.5,0.5)" />
  <path
     d="m 20.83596,105.63985 v 0 c 0,-0.55085 0.446548,-0.9974 0.997391,-0.9974 h 49.53277 c 0.264526,0 0.518219,0.10508 0.705269,0.29213 0.187042,0.18705 0.292129,0.44074 0.292129,0.70527 v 3.98945 c 0,0.55085 -0.446548,0.9974 -0.997398,0.9974 h -49.53277 c -0.550843,0 -0.997391,-0.44655 -0.997391,-0.9974 z"
     id="path2065"
     inkscape:connector-curvature="0"
     style="fill:#f3f3f3;fill-rule:evenodd;stroke:none;stroke-width:1" />
  <path
     d="m 20.83596,105.63985 v 0 c 0,-0.55085 0.446548,-0.9974 0.997391,-0.9974 h 49.53277 c 0.264526,0 0.518219,0.10508 0.705269,0.29213 0.187042,0.18705 0.292129,0.44074 0.292129,0.70527 v 3.98945 c 0,0.55085 -0.446548,0.9974 -0.997398,0.9974 h -49.53277 c -0.550843,0 -0.997391,-0.44655 -0.997391,-0.9974 z"
     id="path2067"
     inkscape:connector-curvature="0"
     style="fill:none;fill-rule:evenodd;stroke:#cccccc;stroke-width:1;stroke-linejoin:round" />
  <path
     d="m 48.039194,108.17395 h 0.640625 v 0.90625 h -0.640625 v 1.23437 h -1.140625 v -1.23437 h -2.328125 l -0.04687,-0.70313 2.375,-3.75 h 1.140625 z m -2.390625,0 h 1.25 v -2.01563 l -0.0625,0.14063 z"
     id="path2069"
     inkscape:connector-curvature="0"
     style="fill:#434343;fill-rule:nonzero;stroke:none;stroke-width:1" />
  <path
     d="m 162.26751,105.62388 v 0 c 0,-0.55085 0.44655,-0.99739 0.99739,-0.99739 h 49.53278 c 0.26453,0 0.51822,0.10508 0.70526,0.29212 0.18704,0.18705 0.29215,0.44075 0.29215,0.70527 v 3.98946 c 0,0.55085 -0.44657,0.9974 -0.99741,0.9974 H 163.2649 c -0.55084,0 -0.99739,-0.44655 -0.99739,-0.9974 z"
     id="path2071"
     inkscape:connector-curvature="0"
     style="fill:#f3f3f3;fill-rule:evenodd;stroke:none;stroke-width:1" />
  <path
     d="m 162.26751,105.62388 v 0 c 0,-0.55085 0.44655,-0.99739 0.99739,-0.99739 h 49.53278 c 0.26453,0 0.51822,0.10508 0.70526,0.29212 0.18704,0.18705 0.29215,0.44075 0.29215,0.70527 v 3.98946 c 0,0.55085 -0.44657,0.9974 -0.99741,0.9974 H 163.2649 c -0.55084,0 -0.99739,-0.44655 -0.99739,-0.9974 z"
     id="path2073"
     inkscape:connector-curvature="0"
     style="fill:none;fill-rule:evenodd;stroke:#cccccc;stroke-width:1;stroke-linejoin:round" />
  <path
     d="m 189.18949,104.54861 v 0.9375 h -0.10937 c -0.51042,0 -0.92188,0.13021 -1.23438,0.39063 -0.3125,0.26041 -0.5,0.61979 -0.5625,1.07812 0.30209,-0.3125 0.6823,-0.46875 1.14063,-0.46875 0.5,0 0.89583,0.17708 1.1875,0.53125 0.29167,0.35417 0.4375,0.82292 0.4375,1.40625 0,0.36458 -0.0833,0.69792 -0.25,1 -0.15625,0.30208 -0.38021,0.53646 -0.67188,0.70313 -0.29166,0.16666 -0.625,0.25 -1,0.25 -0.59375,0 -1.07812,-0.20834 -1.45312,-0.625 -0.36458,-0.41667 -0.54688,-0.97396 -0.54688,-1.67188 v -0.40625 c 0,-0.61458 0.11459,-1.15625 0.34375,-1.625 0.23959,-0.47917 0.57813,-0.84896 1.01563,-1.10937 0.4375,-0.26042 0.94271,-0.39063 1.51562,-0.39063 z m -1.10937,2.84375 c -0.17708,0 -0.34375,0.0521 -0.5,0.15625 -0.14583,0.0937 -0.25,0.21875 -0.3125,0.375 v 0.34375 c 0,0.375 0.0729,0.67188 0.21875,0.89063 0.14583,0.20833 0.35417,0.3125 0.625,0.3125 0.23958,0 0.43229,-0.0937 0.57812,-0.28125 0.15625,-0.19792 0.23438,-0.44792 0.23438,-0.75 0,-0.3125 -0.0781,-0.5625 -0.23438,-0.75 -0.14583,-0.19792 -0.34895,-0.29688 -0.60937,-0.29688 z"
     id="path2075"
     inkscape:connector-curvature="0"
     style="fill:#434343;fill-rule:nonzero;stroke:none;stroke-width:1" />
  <path
     d="m 91.547154,89.641537 v 0 c 0,-0.547943 0.444199,-0.992142 0.992142,-0.992142 h 49.543274 c 0.26312,0 0.51549,0.104531 0.70155,0.290589 0.18605,0.186065 0.29059,0.438423 0.29059,0.701553 v 3.968468 c 0,0.547943 -0.4442,0.992149 -0.99214,0.992149 H 92.539296 c -0.547943,0 -0.992142,-0.444206 -0.992142,-0.992149 z"
     id="path2077"
     inkscape:connector-curvature="0"
     style="fill:#f3f3f3;fill-rule:evenodd;stroke:none;stroke-width:1" />
  <path
     d="m 91.547154,89.641537 v 0 c 0,-0.547943 0.444199,-0.992142 0.992142,-0.992142 h 49.543274 c 0.26312,0 0.51549,0.104531 0.70155,0.290589 0.18605,0.186065 0.29059,0.438423 0.29059,0.701553 v 3.968468 c 0,0.547943 -0.4442,0.992149 -0.99214,0.992149 H 92.539296 c -0.547943,0 -0.992142,-0.444206 -0.992142,-0.992149 z"
     id="path2079"
     inkscape:connector-curvature="0"
     style="fill:none;fill-rule:evenodd;stroke:#cccccc;stroke-width:1;stroke-linejoin:round" />
  <path
     d="m 116.54725,90.962027 h 0.60938 c 0.28125,0 0.48958,-0.07292 0.625,-0.21875 0.14583,-0.145833 0.21875,-0.333333 0.21875,-0.5625 0,-0.229167 -0.0677,-0.40625 -0.20313,-0.53125 -0.13541,-0.135417 -0.32291,-0.203125 -0.5625,-0.203125 -0.21875,0 -0.40104,0.0625 -0.54687,0.1875 -0.14583,0.114583 -0.21875,0.265625 -0.21875,0.453125 h -1.125 c 0,-0.291667 0.0781,-0.557292 0.23437,-0.796875 0.15625,-0.239583 0.38021,-0.421875 0.67188,-0.546875 0.29167,-0.135417 0.60937,-0.203125 0.95312,-0.203125 0.60417,0 1.07292,0.145833 1.40625,0.4375 0.34375,0.28125 0.51563,0.677083 0.51563,1.1875 0,0.260417 -0.0781,0.5 -0.23438,0.71875 -0.15625,0.21875 -0.36458,0.385417 -0.625,0.5 0.32292,0.114583 0.5625,0.286458 0.71875,0.515625 0.15625,0.229167 0.23438,0.5 0.23438,0.8125 0,0.5 -0.1875,0.90625 -0.5625,1.21875 -0.36458,0.302083 -0.84896,0.453125 -1.45313,0.453125 -0.57291,0 -1.04166,-0.151042 -1.40625,-0.453125 -0.35416,-0.302083 -0.53125,-0.697917 -0.53125,-1.1875 h 1.125 c 0,0.21875 0.0781,0.395833 0.23438,0.53125 0.16667,0.135417 0.36979,0.203125 0.60937,0.203125 0.26042,0 0.46875,-0.07292 0.625,-0.21875 0.15625,-0.145833 0.23438,-0.333333 0.23438,-0.5625 0,-0.572917 -0.3125,-0.859375 -0.9375,-0.859375 h -0.60938 z"
     id="path2081"
     inkscape:connector-curvature="0"
     style="fill:#434343;fill-rule:nonzero;stroke:none;stroke-width:1" />
  <path
     d="m 76.342434,260.38496 v 0 c 0,-4.37415 3.545944,-7.92011 7.92009,-7.92011 h 66.081086 c 2.10054,0 4.11503,0.83444 5.60034,2.31973 1.48531,1.48533 2.31975,3.49982 2.31975,5.60038 v 58.20706 c 0,4.37414 -3.54595,7.92007 -7.92009,7.92007 H 84.262524 c -4.374145,0 -7.92009,-3.54593 -7.92009,-7.92007 z"
     id="path2083"
     inkscape:connector-curvature="0"
     style="fill:#f3f3f3;fill-rule:evenodd;stroke:none;stroke-width:1" />
  <path
     d="m 76.342434,260.38496 v 0 c 0,-4.37415 3.545944,-7.92011 7.92009,-7.92011 h 66.081086 c 2.10054,0 4.11503,0.83444 5.60034,2.31973 1.48531,1.48533 2.31975,3.49982 2.31975,5.60038 v 58.20706 c 0,4.37414 -3.54595,7.92007 -7.92009,7.92007 H 84.262524 c -4.374145,0 -7.92009,-3.54593 -7.92009,-7.92007 z"
     id="path2085"
     inkscape:connector-curvature="0"
     style="fill:none;fill-rule:evenodd;stroke:#cccccc;stroke-width:1;stroke-linejoin:round" />
  <path
     d="m 114.87506,294.28849 h -1.89062 v -7.25 l -2.23438,0.70312 v -1.53125 l 3.92188,-1.40625 h 0.20312 z m 9.52176,-8.42188 -3.67187,8.42188 h -1.98438 l 3.67188,-7.95313 h -4.71875 v -1.51562 h 6.70312 z"
     id="path2087"
     inkscape:connector-curvature="0"
     style="fill:#434343;fill-rule:nonzero;stroke:none;stroke-width:1" />
  <path
     d="m 88.901564,335.07487 v 0 c 0,-0.86686 0.702728,-1.56958 1.569595,-1.56958 h 54.215151 c 0.41629,0 0.81552,0.16537 1.10986,0.45971 0.29436,0.29438 0.45974,0.69361 0.45974,1.10987 v 6.27816 c 0,0.86686 -0.70273,1.56958 -1.5696,1.56958 H 90.471159 c -0.866867,0 -1.569595,-0.70272 -1.569595,-1.56958 z"
     id="path2089"
     inkscape:connector-curvature="0"
     style="fill:#f3f3f3;fill-rule:evenodd;stroke:none;stroke-width:1" />
  <path
     d="m 88.901564,335.07487 v 0 c 0,-0.86686 0.702728,-1.56958 1.569595,-1.56958 h 54.215151 c 0.41629,0 0.81552,0.16537 1.10986,0.45971 0.29436,0.29438 0.45974,0.69361 0.45974,1.10987 v 6.27816 c 0,0.86686 -0.70273,1.56958 -1.5696,1.56958 H 90.471159 c -0.866867,0 -1.569595,-0.70272 -1.569595,-1.56958 z"
     id="path2091"
     inkscape:connector-curvature="0"
     style="fill:none;fill-rule:evenodd;stroke:#cccccc;stroke-width:1;stroke-linejoin:round" />
  <path
     d="m 115.63679,341.95396 h -1.5 v -5.79688 l -1.79687,0.5625 v -1.23437 l 3.125,-1.125 h 0.17187 z m 7.39507,-5.5625 c 0,0.36458 -0.0937,0.6927 -0.28125,0.98437 -0.17708,0.28125 -0.42708,0.50521 -0.75,0.67188 0.36458,0.17708 0.65104,0.42187 0.85937,0.73437 0.21875,0.3125 0.32813,0.67708 0.32813,1.09375 0,0.67708 -0.22917,1.21354 -0.6875,1.60938 -0.45833,0.38541 -1.08333,0.57812 -1.875,0.57812 -0.78125,0 -1.40104,-0.19792 -1.85938,-0.59375 -0.45833,-0.39583 -0.6875,-0.92708 -0.6875,-1.59375 0,-0.41667 0.10417,-0.78125 0.3125,-1.09375 0.21875,-0.3125 0.51042,-0.55729 0.875,-0.73437 -0.32291,-0.16667 -0.57812,-0.39063 -0.76562,-0.67188 -0.17708,-0.29167 -0.26563,-0.61979 -0.26563,-0.98437 0,-0.64584 0.21355,-1.16146 0.64063,-1.54688 0.4375,-0.38542 1.02083,-0.57812 1.75,-0.57812 0.73958,0 1.32292,0.1927 1.75,0.57812 0.4375,0.375 0.65625,0.89063 0.65625,1.54688 z m -1.34375,3.375 c 0,-0.32292 -0.099,-0.58334 -0.29688,-0.78125 -0.1875,-0.19792 -0.4427,-0.29688 -0.76562,-0.29688 -0.3125,0 -0.56771,0.099 -0.76563,0.29688 -0.1875,0.1875 -0.28125,0.44791 -0.28125,0.78125 0,0.32291 0.0937,0.58333 0.28125,0.78125 0.1875,0.19791 0.44792,0.29687 0.78125,0.29687 0.32292,0 0.57813,-0.0937 0.76563,-0.28125 0.1875,-0.19792 0.28125,-0.46354 0.28125,-0.79687 z m -0.15625,-3.29688 c 0,-0.30208 -0.0781,-0.54167 -0.23438,-0.71875 -0.15625,-0.17708 -0.3802,-0.26562 -0.67187,-0.26562 -0.27083,0 -0.48438,0.0885 -0.64063,0.26562 -0.15625,0.16667 -0.23437,0.40625 -0.23437,0.71875 0,0.30208 0.0781,0.54688 0.23437,0.73438 0.15625,0.17708 0.375,0.26562 0.65625,0.26562 0.28125,0 0.5,-0.0885 0.65625,-0.26562 0.15625,-0.1875 0.23438,-0.4323 0.23438,-0.73438 z"
     id="path2093"
     inkscape:connector-curvature="0"
     style="fill:#434343;fill-rule:nonzero;stroke:none;stroke-width:1" />
  <path
     d="m 89.177164,216.09271 v 0 c 0,-1.19634 0.969818,-2.16616 2.166138,-2.16616 h 53.022038 c 0.5745,0 1.12547,0.22823 1.5317,0.63446 0.40622,0.40622 0.63445,0.9572 0.63445,1.5317 v 15.91966 c 0,1.19633 -0.96982,2.16615 -2.16615,2.16615 H 91.343302 c -1.19632,0 -2.166138,-0.96982 -2.166138,-2.16615 z"
     id="path2101"
     inkscape:connector-curvature="0"
     style="fill:#f3f3f3;fill-rule:evenodd;stroke:none;stroke-width:1" />
  <path
     d="m 89.177164,216.09271 v 0 c 0,-1.19634 0.969818,-2.16616 2.166138,-2.16616 h 53.022038 c 0.5745,0 1.12547,0.22823 1.5317,0.63446 0.40622,0.40622 0.63445,0.9572 0.63445,1.5317 v 15.91966 c 0,1.19633 -0.96982,2.16615 -2.16615,2.16615 H 91.343302 c -1.19632,0 -2.166138,-0.96982 -2.166138,-2.16615 z"
     id="path2103"
     inkscape:connector-curvature="0"
     style="fill:none;fill-rule:evenodd;stroke:#cccccc;stroke-width:1;stroke-linejoin:round" />
  <path
     d="m 115.69184,228.85253 h -1.82812 v -6.89063 c -0.66667,0.625 -1.45833,1.08854 -2.375,1.39063 v -1.67188 c 0.47917,-0.15625 1,-0.44792 1.5625,-0.875 0.5625,-0.4375 0.94792,-0.94792 1.15625,-1.53125 h 1.48437 z m 8.89686,-1.70313 v 1.70313 h -6.40625 c 0.0729,-0.64584 0.28125,-1.25521 0.625,-1.82813 0.35416,-0.57292 1.04166,-1.33333 2.0625,-2.28125 0.82291,-0.77083 1.32812,-1.29167 1.51562,-1.5625 0.25,-0.375 0.375,-0.75 0.375,-1.125 0,-0.40625 -0.10937,-0.71875 -0.32812,-0.9375 -0.21875,-0.21875 -0.52084,-0.32812 -0.90625,-0.32812 -0.38542,0 -0.69271,0.11458 -0.92188,0.34375 -0.21875,0.22916 -0.34375,0.60937 -0.375,1.14062 l -1.82812,-0.17187 c 0.10416,-1.01042 0.4427,-1.73438 1.01562,-2.17188 0.57292,-0.4375 1.29167,-0.65625 2.15625,-0.65625 0.9375,0 1.67188,0.25521 2.20313,0.76563 0.54166,0.5 0.8125,1.1302 0.8125,1.89062 0,0.42708 -0.0781,0.83854 -0.23438,1.23438 -0.14583,0.38541 -0.38542,0.78645 -0.71875,1.20312 -0.21875,0.29167 -0.61979,0.70313 -1.20312,1.23438 -0.57292,0.52083 -0.9375,0.86979 -1.09375,1.04687 -0.15625,0.16667 -0.28125,0.33333 -0.375,0.5 z"
     id="path2105"
     inkscape:connector-curvature="0"
     style="fill:#434343;fill-rule:nonzero;stroke:none;stroke-width:1" />
  <polygon
     id="polygon2185"
     points="227.27558,195.13872 7.433071,195.13872 7.433071,144.71352 227.27558,144.71352 "
     style="fill:#f3f3f3;fill-rule:evenodd;stroke:none;stroke-width:1"
     transform="translate(0.5,0.5)" />
  <polygon
     id="polygon2187"
     points="227.27558,195.13872 7.433071,195.13872 7.433071,144.71352 227.27558,144.71352 "
     style="fill:none;fill-rule:evenodd;stroke:#cccccc;stroke-width:1;stroke-linejoin:round"
     transform="translate(0.5,0.5)" />
  <path
     d="m 116.28871,170.0855 c -0.47916,-0.20834 -0.82812,-0.48438 -1.04687,-0.82813 -0.20833,-0.35416 -0.3125,-0.73958 -0.3125,-1.15625 0,-0.70833 0.24479,-1.29166 0.73437,-1.75 0.5,-0.46875 1.20834,-0.70312 2.125,-0.70312 0.90625,0 1.60938,0.23437 2.10938,0.70312 0.51042,0.45834 0.76562,1.04167 0.76562,1.75 0,0.44792 -0.11979,0.84375 -0.35937,1.1875 -0.22917,0.34375 -0.55208,0.60938 -0.96875,0.79688 0.53125,0.20833 0.93229,0.51562 1.20312,0.92187 0.28125,0.40625 0.42188,0.875 0.42188,1.40625 0,0.88542 -0.28125,1.60417 -0.84375,2.15625 -0.5625,0.55209 -1.30729,0.82813 -2.23438,0.82813 -0.875,0 -1.59895,-0.22917 -2.17187,-0.6875 -0.67708,-0.54167 -1.01563,-1.28125 -1.01563,-2.21875 0,-0.51042 0.125,-0.97917 0.375,-1.40625 0.26042,-0.4375 0.66667,-0.77084 1.21875,-1 z m 0.375,-1.84375 c 0,0.36458 0.099,0.65104 0.29688,0.85937 0.20833,0.19792 0.48437,0.29688 0.82812,0.29688 0.35417,0 0.63542,-0.10417 0.84375,-0.3125 0.20834,-0.20834 0.3125,-0.49479 0.3125,-0.85938 0,-0.34375 -0.10416,-0.61458 -0.3125,-0.8125 -0.20833,-0.20833 -0.48437,-0.3125 -0.82812,-0.3125 -0.34375,0 -0.61979,0.10417 -0.82813,0.3125 -0.20833,0.20834 -0.3125,0.48438 -0.3125,0.82813 z m -0.17187,4.07812 c 0,0.51042 0.13021,0.90625 0.39062,1.1875 0.26042,0.28125 0.58334,0.42188 0.96875,0.42188 0.375,0 0.6823,-0.13542 0.92188,-0.40625 0.25,-0.27084 0.375,-0.66667 0.375,-1.1875 0,-0.4375 -0.125,-0.79167 -0.375,-1.0625 -0.25,-0.27084 -0.56771,-0.40625 -0.95313,-0.40625 -0.44791,0 -0.78125,0.15625 -1,0.46875 -0.21875,0.30208 -0.32812,0.63021 -0.32812,0.98437 z"
     id="path2189"
     inkscape:connector-curvature="0"
     style="fill:#434343;fill-rule:nonzero;stroke:none;stroke-width:1" />
  <path
     d="m 20.090554,216.09139 v 0 c 0,-1.19634 0.969818,-2.16616 2.166145,-2.16616 h 53.022034 c 0.574494,0 1.125458,0.22823 1.531693,0.63446 0.406235,0.40622 0.63446,0.9572 0.63446,1.5317 v 15.91966 c 0,1.19633 -0.969818,2.16615 -2.166153,2.16615 H 22.256699 c -1.196327,0 -2.166145,-0.96982 -2.166145,-2.16615 z"
     id="path2191"
     inkscape:connector-curvature="0"
     style="fill:#f3f3f3;fill-rule:evenodd;stroke:none;stroke-width:1" />
  <path
     d="m 20.090554,216.09139 v 0 c 0,-1.19634 0.969818,-2.16616 2.166145,-2.16616 h 53.022034 c 0.574494,0 1.125458,0.22823 1.531693,0.63446 0.406235,0.40622 0.63446,0.9572 0.63446,1.5317 v 15.91966 c 0,1.19633 -0.969818,2.16615 -2.166153,2.16615 H 22.256699 c -1.196327,0 -2.166145,-0.96982 -2.166145,-2.16615 z"
     id="path2193"
     inkscape:connector-curvature="0"
     style="fill:none;fill-rule:evenodd;stroke:#cccccc;stroke-width:1;stroke-linejoin:round" />
  <path
     d="m 46.605239,228.85122 h -1.828125 v -6.89063 c -0.666667,0.625 -1.458333,1.08854 -2.375,1.39063 v -1.67188 c 0.479167,-0.15625 1,-0.44792 1.5625,-0.875 0.5625,-0.4375 0.947917,-0.94792 1.15625,-1.53125 h 1.484375 z m 5.818726,-9.57813 c 0.927083,0 1.651041,0.32813 2.171875,0.98438 0.614583,0.78125 0.921875,2.07812 0.921875,3.89062 0,1.80208 -0.3125,3.09896 -0.9375,3.89063 -0.510417,0.64583 -1.229167,0.96875 -2.15625,0.96875 -0.927084,0 -1.677084,-0.35417 -2.25,-1.0625 -0.5625,-0.71875 -0.84375,-1.98959 -0.84375,-3.8125 0,-1.80209 0.3125,-3.09896 0.9375,-3.89063 0.510416,-0.64583 1.229166,-0.96875 2.15625,-0.96875 z m 0,1.51563 c -0.21875,0 -0.416667,0.0729 -0.59375,0.21875 -0.166667,0.13541 -0.302084,0.38541 -0.40625,0.75 -0.125,0.46875 -0.1875,1.26562 -0.1875,2.39062 0,1.11458 0.05729,1.88542 0.171875,2.3125 0.114583,0.41667 0.255208,0.69271 0.421875,0.82813 0.177083,0.13541 0.375,0.20312 0.59375,0.20312 0.21875,0 0.416666,-0.0677 0.59375,-0.20312 0.177083,-0.14584 0.3125,-0.40105 0.40625,-0.76563 0.125,-0.46875 0.1875,-1.26042 0.1875,-2.375 0,-1.125 -0.05729,-1.89583 -0.171875,-2.3125 -0.114584,-0.41667 -0.260417,-0.69271 -0.4375,-0.82812 -0.166667,-0.14584 -0.359375,-0.21875 -0.578125,-0.21875 z"
     id="path2195"
     inkscape:connector-curvature="0"
     style="fill:#434343;fill-rule:nonzero;stroke:none;stroke-width:1" />
  <path
     d="m 158.26377,216.09139 v 0 c 0,-1.19634 0.96982,-2.16616 2.16616,-2.16616 h 53.02202 c 0.57449,0 1.12548,0.22823 1.5317,0.63446 0.40622,0.40622 0.63446,0.9572 0.63446,1.5317 v 15.91966 c 0,1.19633 -0.96981,2.16615 -2.16616,2.16615 h -53.02202 c -1.19634,0 -2.16616,-0.96982 -2.16616,-2.16615 z"
     id="path2197"
     inkscape:connector-curvature="0"
     style="fill:#f3f3f3;fill-rule:evenodd;stroke:none;stroke-width:1" />
  <path
     d="m 158.26377,216.09139 v 0 c 0,-1.19634 0.96982,-2.16616 2.16616,-2.16616 h 53.02202 c 0.57449,0 1.12548,0.22823 1.5317,0.63446 0.40622,0.40622 0.63446,0.9572 0.63446,1.5317 v 15.91966 c 0,1.19633 -0.96981,2.16615 -2.16616,2.16615 h -53.02202 c -1.19634,0 -2.16616,-0.96982 -2.16616,-2.16615 z"
     id="path2199"
     inkscape:connector-curvature="0"
     style="fill:none;fill-rule:evenodd;stroke:#cccccc;stroke-width:1;stroke-linejoin:round" />
  <path
     d="m 175.51449,228.85122 h -1.82812 v -6.89063 c -0.66667,0.625 -1.45833,1.08854 -2.375,1.39063 v -1.67188 c 0.47917,-0.15625 1,-0.44792 1.5625,-0.875 0.5625,-0.4375 0.94792,-0.94792 1.15625,-1.53125 h 1.48437 z m 6.31873,0 v -1.92188 h -3.90625 v -1.59375 l 4.14062,-6.0625 h 1.53125 v 6.04688 h 1.1875 v 1.60937 h -1.1875 v 1.92188 z m 0,-3.53125 v -3.25 l -2.20313,3.25 z m 3.2406,3.6875 2.35937,-9.85938 h 1.375 l -2.39062,9.85938 z m 8.96861,-0.15625 h -1.82812 v -6.89063 c -0.66667,0.625 -1.45834,1.08854 -2.375,1.39063 v -1.67188 c 0.47916,-0.15625 1,-0.44792 1.5625,-0.875 0.5625,-0.4375 0.94791,-0.94792 1.15625,-1.53125 h 1.48437 z m 8.9281,-7.20313 -1.78125,0.1875 c -0.0417,-0.36458 -0.15625,-0.63021 -0.34375,-0.79687 -0.17708,-0.17709 -0.41145,-0.26563 -0.70312,-0.26563 -0.38542,0 -0.71354,0.17708 -0.98438,0.53125 -0.26041,0.34375 -0.42708,1.0625 -0.5,2.15625 0.45834,-0.54167 1.02605,-0.8125 1.70313,-0.8125 0.76042,0 1.41146,0.29167 1.95312,0.875 0.55209,0.58333 0.82813,1.33333 0.82813,2.25 0,0.97917 -0.28646,1.76563 -0.85938,2.35938 -0.57291,0.58333 -1.30729,0.875 -2.20312,0.875 -0.96875,0 -1.76563,-0.3698 -2.39063,-1.10938 -0.61458,-0.75 -0.92187,-1.97917 -0.92187,-3.6875 0,-1.75 0.32292,-3.01042 0.96875,-3.78125 0.64583,-0.77083 1.48437,-1.15625 2.51562,-1.15625 0.72917,0 1.32813,0.20313 1.79688,0.60938 0.47917,0.40625 0.78646,0.99479 0.92187,1.76562 z m -4.15625,3.98438 c 0,0.59375 0.13542,1.05208 0.40625,1.375 0.28125,0.32291 0.59896,0.48437 0.95313,0.48437 0.33333,0 0.60937,-0.13021 0.82812,-0.39062 0.22917,-0.26042 0.34375,-0.69271 0.34375,-1.29688 0,-0.625 -0.11979,-1.07812 -0.35937,-1.35937 -0.23958,-0.29167 -0.54167,-0.4375 -0.90625,-0.4375 -0.35417,0 -0.65625,0.14062 -0.90625,0.42187 -0.23958,0.27083 -0.35938,0.67188 -0.35938,1.20313 z"
     id="path2201"
     inkscape:connector-curvature="0"
     style="fill:#434343;fill-rule:nonzero;stroke:none;stroke-width:1" />
  <path
     d="m 157.7126,202.79938 v 0 c 0,-0.54795 0.4442,-0.99215 0.99215,-0.99215 h 55.37004 c 0.26312,0 0.5155,0.10453 0.70153,0.29059 0.18607,0.18607 0.29062,0.43843 0.29062,0.70156 v 3.96847 c 0,0.54794 -0.44421,0.99214 -0.99215,0.99214 h -55.37004 c -0.54795,0 -0.99215,-0.4442 -0.99215,-0.99214 z"
     id="path2203"
     inkscape:connector-curvature="0"
     style="fill:#f3f3f3;fill-rule:evenodd;stroke:none;stroke-width:1" />
  <path
     d="m 157.7126,202.79938 v 0 c 0,-0.54795 0.4442,-0.99215 0.99215,-0.99215 h 55.37004 c 0.26312,0 0.5155,0.10453 0.70153,0.29059 0.18607,0.18607 0.29062,0.43843 0.29062,0.70156 v 3.96847 c 0,0.54794 -0.44421,0.99214 -0.99215,0.99214 h -55.37004 c -0.54795,0 -0.99215,-0.4442 -0.99215,-0.99214 z"
     id="path2205"
     inkscape:connector-curvature="0"
     style="fill:none;fill-rule:evenodd;stroke:#cccccc;stroke-width:1;stroke-linejoin:round" />
  <path
     d="m 179.53624,207.46361 h -1.10937 v -4.14063 c -0.39583,0.375 -0.86458,0.65104 -1.40625,0.82813 v -0.98438 c 0.28125,-0.0937 0.58854,-0.27083 0.92187,-0.53125 0.34375,-0.27083 0.57813,-0.57812 0.70313,-0.92187 h 0.89062 z m 1.58985,-1.51563 1.0625,-0.14062 c 0.0417,0.27083 0.13541,0.47916 0.28125,0.625 0.14583,0.14583 0.32291,0.21875 0.53125,0.21875 0.22916,0 0.42187,-0.0833 0.57812,-0.25 0.15625,-0.17709 0.23438,-0.41146 0.23438,-0.70313 0,-0.28125 -0.0781,-0.5 -0.23438,-0.65625 -0.14583,-0.16667 -0.32291,-0.25 -0.53125,-0.25 -0.14583,0 -0.3125,0.0312 -0.5,0.0937 l 0.10938,-0.90625 c 0.30208,0.0104 0.53125,-0.0521 0.6875,-0.1875 0.15625,-0.13542 0.23437,-0.31771 0.23437,-0.54687 0,-0.1875 -0.0573,-0.33855 -0.17187,-0.45313 -0.11459,-0.11458 -0.26563,-0.17187 -0.45313,-0.17187 -0.1875,0 -0.34896,0.0677 -0.48437,0.20312 -0.13542,0.125 -0.21875,0.3125 -0.25,0.5625 l -1,-0.17187 c 0.0625,-0.35417 0.16666,-0.63021 0.3125,-0.82813 0.14583,-0.20833 0.34375,-0.36979 0.59375,-0.48437 0.25,-0.125 0.53646,-0.1875 0.85937,-0.1875 0.53125,0 0.96354,0.17187 1.29688,0.51562 0.26041,0.28125 0.39062,0.59896 0.39062,0.95313 0,0.5 -0.27083,0.90104 -0.8125,1.20312 0.32292,0.0729 0.58334,0.23438 0.78125,0.48438 0.19792,0.23958 0.29688,0.53125 0.29688,0.875 0,0.5 -0.1875,0.92708 -0.5625,1.28125 -0.36459,0.35416 -0.81771,0.53125 -1.35938,0.53125 -0.52083,0 -0.95312,-0.14584 -1.29687,-0.4375 -0.33334,-0.30209 -0.53125,-0.69271 -0.59375,-1.17188 z m 4.13672,1.60938 1.42187,-5.92188 h 0.82813 l -1.4375,5.92188 z m 5.39453,-0.0937 h -1.10938 v -4.14063 c -0.39583,0.375 -0.86458,0.65104 -1.40625,0.82813 v -0.98438 c 0.28125,-0.0937 0.58854,-0.27083 0.92188,-0.53125 0.34375,-0.27083 0.57812,-0.57812 0.70312,-0.92187 h 0.89063 z m 1.65234,-1.46875 1.09375,-0.125 c 0.0312,0.25 0.11979,0.44791 0.26563,0.59375 0.15625,0.14583 0.33854,0.21875 0.54687,0.21875 0.22917,0 0.42188,-0.0937 0.57813,-0.28125 0.15625,-0.1875 0.23437,-0.46875 0.23437,-0.84375 0,-0.35417 -0.0781,-0.61459 -0.23437,-0.78125 -0.15625,-0.17709 -0.35938,-0.26563 -0.60938,-0.26563 -0.32292,0 -0.60937,0.13542 -0.85937,0.40625 l -0.89063,-0.125 0.5625,-2.98437 h 2.90625 v 1.03125 h -2.0625 l -0.17187,0.96875 c 0.23958,-0.11459 0.48958,-0.17188 0.75,-0.17188 0.47916,0 0.88541,0.17708 1.21875,0.53125 0.34375,0.35417 0.51562,0.8125 0.51562,1.375 0,0.46875 -0.13542,0.89063 -0.40625,1.26563 -0.375,0.5 -0.89062,0.75 -1.54687,0.75 -0.53125,0 -0.96355,-0.14063 -1.29688,-0.42188 -0.33333,-0.28125 -0.53125,-0.66146 -0.59375,-1.14062 z"
     id="path2207"
     inkscape:connector-curvature="0"
     style="fill:#434343;fill-rule:nonzero;stroke:none;stroke-width:1" />
  <path
     d="m 20.090554,202.79932 v 0 c 0,-0.54795 0.444199,-0.99215 0.992142,-0.99215 h 55.370033 c 0.263138,0 0.515503,0.10453 0.701553,0.29059 0.186066,0.18607 0.290604,0.43842 0.290604,0.70156 v 3.96846 c 0,0.54794 -0.444199,0.99214 -0.992157,0.99214 H 21.082696 c -0.547943,0 -0.992142,-0.4442 -0.992142,-0.99214 z"
     id="path2209"
     inkscape:connector-curvature="0"
     style="fill:#f3f3f3;fill-rule:evenodd;stroke:none;stroke-width:1" />
  <path
     d="m 20.090554,202.79932 v 0 c 0,-0.54795 0.444199,-0.99215 0.992142,-0.99215 h 55.370033 c 0.263138,0 0.515503,0.10453 0.701553,0.29059 0.186066,0.18607 0.290604,0.43842 0.290604,0.70156 v 3.96846 c 0,0.54794 -0.444199,0.99214 -0.992157,0.99214 H 21.082696 c -0.547943,0 -0.992142,-0.4442 -0.992142,-0.99214 z"
     id="path2211"
     inkscape:connector-curvature="0"
     style="fill:none;fill-rule:evenodd;stroke:#cccccc;stroke-width:1;stroke-linejoin:round" />
  <path
     d="m 46.902484,206.13543 1.0625,-0.10938 c 0.03125,0.20833 0.09896,0.36458 0.203125,0.46875 0.114583,0.10417 0.260417,0.15625 0.4375,0.15625 0.229167,0 0.421875,-0.10417 0.578125,-0.3125 0.15625,-0.20833 0.260417,-0.64062 0.3125,-1.29687 -0.28125,0.32291 -0.630208,0.48437 -1.046875,0.48437 -0.447917,0 -0.838542,-0.17187 -1.171875,-0.51562 -0.322917,-0.35417 -0.484375,-0.8073 -0.484375,-1.35938 0,-0.58333 0.171875,-1.05208 0.515625,-1.40625 0.354167,-0.35417 0.796875,-0.53125 1.328125,-0.53125 0.583333,0 1.057292,0.22396 1.421875,0.67188 0.375,0.44791 0.5625,1.1875 0.5625,2.21875 0,1.04166 -0.192708,1.79687 -0.578125,2.26562 -0.385417,0.46875 -0.890625,0.70313 -1.515625,0.70313 -0.447917,0 -0.8125,-0.1198 -1.09375,-0.35938 -0.270833,-0.23958 -0.447917,-0.59896 -0.53125,-1.07812 z m 2.484375,-2.39063 c 0,-0.35417 -0.08333,-0.63021 -0.25,-0.82812 -0.15625,-0.19792 -0.338542,-0.29688 -0.546875,-0.29688 -0.208333,0 -0.380208,0.0833 -0.515625,0.25 -0.135417,0.15625 -0.203125,0.41667 -0.203125,0.78125 0,0.36458 0.07292,0.63542 0.21875,0.8125 0.145833,0.17708 0.328125,0.26563 0.546875,0.26563 0.21875,0 0.395833,-0.0833 0.53125,-0.25 0.145833,-0.16667 0.21875,-0.41146 0.21875,-0.73438 z"
     id="path2213"
     inkscape:connector-curvature="0"
     style="fill:#434343;fill-rule:nonzero;stroke:none;stroke-width:1" />
</svg>
