<?xml version="1.0" encoding="UTF-8" standalone="no"?>
<!-- Created with Inkscape (http://www.inkscape.org/) -->

<svg
   xmlns:dc="http://purl.org/dc/elements/1.1/"
   xmlns:cc="http://creativecommons.org/ns#"
   xmlns:rdf="http://www.w3.org/1999/02/22-rdf-syntax-ns#"
   xmlns:svg="http://www.w3.org/2000/svg"
   xmlns="http://www.w3.org/2000/svg"
   xmlns:sodipodi="http://sodipodi.sourceforge.net/DTD/sodipodi-0.dtd"
   xmlns:inkscape="http://www.inkscape.org/namespaces/inkscape"
   id="svg3393"
   version="1.1"
   inkscape:version="0.91 r13725"
   xml:space="preserve"
   width="350"
   height="45"
   viewBox="0 0 350 45"
   sodipodi:docname="SavetoGooglePay-English-Dark.svg"><metadata
     id="metadata3399"><rdf:RDF><cc:Work
         rdf:about=""><dc:format>image/svg+xml</dc:format><dc:type
           rdf:resource="http://purl.org/dc/dcmitype/StillImage" /><dc:title /></cc:Work></rdf:RDF></metadata><defs
     id="defs3397"><clipPath
       clipPathUnits="userSpaceOnUse"
       id="clipPath3413"><path
         d="m 80,410 2720,0 c 22.09,0 40,-17.91 40,-40 l 0,-280 c 0,-22.0898 -17.91,-40 -40,-40 L 80,50 C 57.9102,50 40,67.9102 40,90 l 0,280 c 0,22.09 17.9102,40 40,40 z"
         id="path3415"
         inkscape:connector-curvature="0"
         style="clip-rule:evenodd" /></clipPath><clipPath
       clipPathUnits="userSpaceOnUse"
       id="clipPath3419"><path
         d="m 0,0 2880,0 0,440 L 0,440 0,0 Z"
         id="path3421"
         inkscape:connector-curvature="0" /></clipPath><clipPath
       clipPathUnits="userSpaceOnUse"
       id="clipPath3429"><path
         d="m 1165,150 10,0 0,160 -10,0 0,-160 z"
         id="path3431"
         inkscape:connector-curvature="0" /></clipPath><clipPath
       clipPathUnits="userSpaceOnUse"
       id="clipPath3439"><path
         d="m 857.645,283.652 0,-40.832 25.179,0 c 6,0 10.957,2.016 14.883,6.047 4.027,4.024 6.043,8.821 6.043,14.375 0,5.442 -2.016,10.18 -6.043,14.215 -3.926,4.133 -8.883,6.203 -14.883,6.203 l -25.179,0 0,-0.008 z m 0,-55.203 0,-47.363 -15.043,0 0,116.937 39.894,0 c 10.141,0 18.742,-3.378 25.832,-10.125 7.195,-6.746 10.793,-14.968 10.793,-24.656 0,-9.91 -3.598,-18.191 -10.793,-24.824 -6.976,-6.645 -15.59,-9.961 -25.832,-9.961 l -24.851,0 0,-0.008 z"
         id="path3441"
         inkscape:connector-curvature="0"
         style="clip-rule:evenodd" /></clipPath><clipPath
       clipPathUnits="userSpaceOnUse"
       id="clipPath3445"><path
         d="m 0,0 2880,0 0,440 L 0,440 0,0 Z"
         id="path3447"
         inkscape:connector-curvature="0" /></clipPath><clipPath
       clipPathUnits="userSpaceOnUse"
       id="clipPath3455"><path
         d="m 934.32,205.586 c 0,-3.922 1.664,-7.188 4.993,-9.801 3.324,-2.613 7.218,-3.922 11.687,-3.922 6.324,0 11.957,2.344 16.918,7.02 4.961,4.683 7.437,10.183 7.437,16.492 -4.691,3.703 -11.23,5.551 -19.621,5.551 -6.109,0 -11.199,-1.473 -15.281,-4.414 -4.086,-2.938 -6.133,-6.571 -6.133,-10.926 m 19.461,58.141 c 11.121,0 19.891,-2.969 26.332,-8.903 6.426,-5.937 9.641,-14.074 9.641,-24.414 l 0,-49.324 -14.387,0 0,11.105 -0.656,0 c -6.215,-9.144 -14.5,-13.718 -24.852,-13.718 -8.828,0 -16.218,2.613 -22.152,7.84 -5.941,5.226 -8.914,11.757 -8.914,19.597 0,8.278 3.129,14.86 9.398,19.758 6.27,4.898 14.633,7.355 25.098,7.355 8.93,0 16.293,-1.632 22.066,-4.902 l 0,3.438 c 0,5.226 -2.074,9.656 -6.21,13.308 -4.153,3.649 -8.989,5.469 -14.551,5.469 -8.399,0 -15.039,-3.539 -19.946,-10.621 l -13.25,8.332 c 7.309,10.453 18.098,15.68 32.383,15.68"
         id="path3457"
         inkscape:connector-curvature="0"
         style="clip-rule:evenodd" /></clipPath><clipPath
       clipPathUnits="userSpaceOnUse"
       id="clipPath3461"><path
         d="m 0,0 2880,0 0,440 L 0,440 0,0 Z"
         id="path3463"
         inkscape:connector-curvature="0" /></clipPath><clipPath
       clipPathUnits="userSpaceOnUse"
       id="clipPath3471"><path
         d="m 1072.32,261.113 -50.2,-115.304 -15.53,0 18.64,40.343 -33.031,74.961 16.351,0 23.87,-57.488 0.33,0 23.21,57.488 16.36,0 z"
         id="path3473"
         inkscape:connector-curvature="0"
         style="clip-rule:evenodd" /></clipPath><clipPath
       clipPathUnits="userSpaceOnUse"
       id="clipPath3477"><path
         d="m 0,0 2880,0 0,440 L 0,440 0,0 Z"
         id="path3479"
         inkscape:connector-curvature="0" /></clipPath><clipPath
       clipPathUnits="userSpaceOnUse"
       id="clipPath3487"><path
         d="m 796.863,238.66 c 0,4.731 -0.398,9.293 -1.156,13.66 l -63.437,0 0,-25.879 36.332,0 c -1.559,-8.433 -6.278,-15.613 -13.434,-20.418 l 0,-16.808 21.684,0 c 12.699,11.703 20.011,28.996 20.011,49.445"
         id="path3489"
         inkscape:connector-curvature="0"
         style="clip-rule:evenodd" /></clipPath><clipPath
       clipPathUnits="userSpaceOnUse"
       id="clipPath3493"><path
         d="m 0,0 2880,0 0,440 L 0,440 0,0 Z"
         id="path3495"
         inkscape:connector-curvature="0" /></clipPath><clipPath
       clipPathUnits="userSpaceOnUse"
       id="clipPath3503"><path
         d="m 732.27,172.996 c 18.152,0 33.437,5.953 44.582,16.219 l -21.684,16.808 c -6.035,-4.058 -13.809,-6.429 -22.898,-6.429 -17.547,0 -32.438,11.812 -37.766,27.734 l -22.336,0 0,-17.312 c 11.07,-21.95 33.82,-37.02 60.102,-37.02"
         id="path3505"
         inkscape:connector-curvature="0"
         style="clip-rule:evenodd" /></clipPath><clipPath
       clipPathUnits="userSpaceOnUse"
       id="clipPath3509"><path
         d="m 0,0 2880,0 0,440 L 0,440 0,0 Z"
         id="path3511"
         inkscape:connector-curvature="0" /></clipPath><clipPath
       clipPathUnits="userSpaceOnUse"
       id="clipPath3519"><path
         d="m 694.504,227.328 c -1.363,4.063 -2.109,8.391 -2.109,12.863 0,4.469 0.746,8.801 2.109,12.86 l 0,17.312 -22.336,0 C 667.59,261.293 665,251.043 665,240.191 c 0,-10.855 2.59,-21.105 7.168,-30.175 l 22.336,17.312 z"
         id="path3521"
         inkscape:connector-curvature="0"
         style="clip-rule:evenodd" /></clipPath><clipPath
       clipPathUnits="userSpaceOnUse"
       id="clipPath3525"><path
         d="m 0,0 2880,0 0,440 L 0,440 0,0 Z"
         id="path3527"
         inkscape:connector-curvature="0" /></clipPath><clipPath
       clipPathUnits="userSpaceOnUse"
       id="clipPath3535"><path
         d="m 732.27,280.785 c 9.91,0 18.796,-3.406 25.804,-10.078 l 0,-0.008 19.199,19.18 c -11.66,10.844 -26.859,17.508 -45.003,17.508 -26.282,0 -49.032,-15.074 -60.102,-37.024 l 22.336,-17.312 c 5.328,15.922 20.219,27.734 37.766,27.734"
         id="path3537"
         inkscape:connector-curvature="0"
         style="clip-rule:evenodd" /></clipPath><clipPath
       clipPathUnits="userSpaceOnUse"
       id="clipPath3541"><path
         d="m 0,0 2880,0 0,440 L 0,440 0,0 Z"
         id="path3543"
         inkscape:connector-curvature="0" /></clipPath></defs><sodipodi:namedview
     pagecolor="#ffffff"
     bordercolor="#666666"
     borderopacity="1"
     objecttolerance="10"
     gridtolerance="10"
     guidetolerance="10"
     inkscape:pageopacity="0"
     inkscape:pageshadow="2"
     inkscape:window-width="1920"
     inkscape:window-height="1056"
     id="namedview3395"
     showgrid="false"
     inkscape:zoom="1"
     inkscape:cx="-174.73864"
     inkscape:cy="-56.022796"
     inkscape:window-x="0"
     inkscape:window-y="24"
     inkscape:window-maximized="1"
     inkscape:current-layer="g3401"
     fit-margin-top="0"
     fit-margin-left="0"
     fit-margin-right="0"
     fit-margin-bottom="0" /><g
     id="g3401"
     inkscape:groupmode="layer"
     inkscape:label="ink_ext_XXXXXX"
     transform="matrix(1.25,0,0,-1.25,-5,51.25)"><g
       id="g3409"
       transform="scale(0.1,0.1)"><g
         clip-path="url(#clipPath3413)"
         id="g3411"><g
           clip-path="url(#clipPath3419)"
           id="g3417"><path
             inkscape:connector-curvature="0"
             id="path3423"
             style="fill:#000000;fill-opacity:1;fill-rule:nonzero;stroke:none"
             d="m 0,0 2890,0 0,460 L 0,460 0,0 Z" /></g></g></g><g
       id="g3425"
       transform="scale(0.1,0.1)"><g
         clip-path="url(#clipPath3429)"
         id="g3427"><path
           inkscape:connector-curvature="0"
           id="path3433"
           style="fill:#3c4042;fill-opacity:1;fill-rule:nonzero;stroke:none"
           d="m 1115,100 110,0 0,260 -110,0 0,-260 z" /></g></g><g
       id="g3435"
       transform="scale(0.1,0.1)"><g
         clip-path="url(#clipPath3439)"
         id="g3437"><g
           clip-path="url(#clipPath3445)"
           id="g3443"><path
             inkscape:connector-curvature="0"
             id="path3449"
             style="fill:#ffffff;fill-opacity:1;fill-rule:nonzero;stroke:none"
             d="m 792.602,131.086 176.52,0 0,216.938 -176.52,0 0,-216.938 z" /></g></g></g><g
       id="g3451"
       transform="scale(0.1,0.1)"><g
         clip-path="url(#clipPath3455)"
         id="g3453"><g
           clip-path="url(#clipPath3461)"
           id="g3459"><path
             inkscape:connector-curvature="0"
             id="path3465"
             style="fill:#ffffff;fill-opacity:1;fill-rule:nonzero;stroke:none"
             d="m 868.793,128.473 170.961,0 0,185.254 -170.961,0 0,-185.254 z" /></g></g></g><g
       id="g3467"
       transform="scale(0.1,0.1)"><g
         clip-path="url(#clipPath3471)"
         id="g3469"><g
           clip-path="url(#clipPath3477)"
           id="g3475"><path
             inkscape:connector-curvature="0"
             id="path3481"
             style="fill:#ffffff;fill-opacity:1;fill-rule:nonzero;stroke:none"
             d="m 942.199,95.8086 180.117,0 0,215.305 -180.117,0 0,-215.305 z" /></g></g></g><g
       id="g3483"
       transform="scale(0.1,0.1)"><g
         clip-path="url(#clipPath3487)"
         id="g3485"><g
           clip-path="url(#clipPath3493)"
           id="g3491"><path
             inkscape:connector-curvature="0"
             id="path3497"
             style="fill:#3f84f6;fill-opacity:1;fill-rule:nonzero;stroke:none"
             d="m 682.27,139.215 164.594,0 0,163.109 -164.594,0 0,-163.109 z" /></g></g></g><g
       id="g3499"
       transform="scale(0.1,0.1)"><g
         clip-path="url(#clipPath3503)"
         id="g3501"><g
           clip-path="url(#clipPath3509)"
           id="g3507"><path
             inkscape:connector-curvature="0"
             id="path3513"
             style="fill:#36a850;fill-opacity:1;fill-rule:nonzero;stroke:none"
             d="m 622.168,122.996 204.684,0 0,154.332 -204.684,0 0,-154.332 z" /></g></g></g><g
       id="g3515"
       transform="scale(0.1,0.1)"><g
         clip-path="url(#clipPath3519)"
         id="g3517"><g
           clip-path="url(#clipPath3525)"
           id="g3523"><path
             inkscape:connector-curvature="0"
             id="path3529"
             style="fill:#fbbb00;fill-opacity:1;fill-rule:nonzero;stroke:none"
             d="m 615,160.016 129.504,0 0,160.348 -129.504,0 0,-160.348 z" /></g></g></g><g
       id="g3531"
       transform="scale(0.1,0.1)"><g
         clip-path="url(#clipPath3535)"
         id="g3533"><g
           clip-path="url(#clipPath3541)"
           id="g3539"><path
             inkscape:connector-curvature="0"
             id="path3545"
             style="fill:#ea4133;fill-opacity:1;fill-rule:nonzero;stroke:none"
             d="m 622.168,203.051 205.105,0 0,154.336 -205.105,0 0,-154.336 z" /></g></g></g><g
       id="g3547"><g
         transform="matrix(1,0,0,-1,126,18)"
         style="font-variant:normal;font-weight:500;font-size:14px;font-family:GoogleSans;-inkscape-font-specification:GoogleSans-Medium;writing-mode:lr-tb;fill:#ffffff;fill-opacity:1;fill-rule:nonzero;stroke:none"
         id="text3549"><path
           d="m 7.4921875,-9.8710938 0,1.3466797 Q 6.7060547,-8.9003906 6.0087891,-9.0849609 5.3115234,-9.2695313 4.6621094,-9.2695313 q -1.1279297,0 -1.7431641,0.4375 -0.6083984,0.4375 -0.6083984,1.2441407 0,0.6767578 0.4033203,1.0253906 0.4101562,0.3417969 1.5449219,0.5537109 l 0.8339843,0.1708985 q 1.5449219,0.2939453 2.2763672,1.0390625 0.7382813,0.7382812 0.7382813,1.9824218 0,1.4833985 -0.9980469,2.24902349 -0.9912109,0.765625 -2.9121094,0.765625 -0.7246093,0 -1.5449218,-0.1640625 -0.8134766,-0.1640625 -1.68847661,-0.48535157 l 0,-1.42187502 q 0.84082031,0.4716797 1.64746091,0.7109375 0.8066407,0.23925784 1.5859375,0.23925784 1.1826172,0 1.8251953,-0.46484374 0.6425782,-0.4648438 0.6425782,-1.3261719 0,-0.7519531 -0.4648438,-1.1757812 Q 5.7421875,-4.3134766 4.6894531,-4.5253906 L 3.8486328,-4.6894531 q -1.5449219,-0.3076172 -2.2353516,-0.9638672 -0.69042964,-0.65625 -0.69042964,-1.8251953 0,-1.3535157 0.95019534,-2.1328125 0.9570312,-0.7792969 2.6318359,-0.7792969 0.7177734,0 1.4628906,0.129883 0.7451172,0.129883 1.5244141,0.3896482 z"
           style=""
           id="path3464" /><path
           d="m 13.026829,-3.8486328 q -1.524414,0 -2.112305,0.3486328 -0.587891,0.3486328 -0.587891,1.1894531 0,0.6699219 0.4375,1.0664063 0.444336,0.38964841 1.203125,0.38964841 1.045899,0 1.674805,-0.73828121 0.635742,-0.7451172 0.635742,-1.975586 l 0,-0.2802734 -1.250976,0 z m 2.508789,-0.5195313 0,4.3681641 -1.257813,0 0,-1.1621094 q -0.430664,0.69726565 -1.073242,1.03222659 -0.642578,0.328125 -1.572265,0.328125 -1.175782,0 -1.8730474,-0.65625 Q 9.068821,-1.1210937 9.068821,-2.2285156 q 0,-1.2919922 0.8613281,-1.9482422 0.8681639,-0.65625 2.5839839,-0.65625 l 1.763672,0 0,-0.1230469 q 0,-0.868164 -0.574218,-1.3398437 -0.567383,-0.4785157 -1.59961,-0.4785157 -0.65625,0 -1.27832,0.1572266 -0.62207,0.1572266 -1.1962892,0.4716797 l 0,-1.1621094 q 0.6904302,-0.2666015 1.3398442,-0.3964844 0.649414,-0.1367187 1.264648,-0.1367187 1.661133,0 2.481445,0.8613281 0.820313,0.8613281 0.820313,2.6113281 z"
           style=""
           id="path3466" /><path
           d="m 16.31299,-7.65625 1.333008,0 2.392578,6.4257813 2.392578,-6.4257813 1.333008,0 L 20.893068,0 19.184084,0 16.31299,-7.65625 Z"
           style=""
           id="path3468" /><path
           d="m 31.348177,-4.1425781 0,0.6152343 -5.783203,0 q 0.08203,1.2988282 0.779297,1.9824219 0.704101,0.67675784 1.955078,0.67675784 0.724609,0 1.401367,-0.17773434 0.683594,-0.1777344 1.353516,-0.5332032 l 0,1.18945316 q -0.676758,0.28710938 -1.387696,0.4375 -0.710937,0.15039063 -1.442382,0.15039063 -1.832032,0 -2.905274,-1.06640625 -1.066406,-1.06640624 -1.066406,-2.88476564 0,-1.8798828 1.011719,-2.9804687 1.018554,-1.1074219 2.741211,-1.1074219 1.544921,0 2.440429,0.9980469 0.902344,0.9912109 0.902344,2.7001953 z m -1.257813,-0.3691406 q -0.01367,-1.0322266 -0.581054,-1.647461 -0.560547,-0.6152344 -1.490235,-0.6152344 -1.052734,0 -1.688476,0.5947266 -0.628906,0.5947266 -0.72461,1.6748047 l 4.484375,-0.00684 z"
           style=""
           id="path3470" /><path
           d="m 37.683475,-9.8300781 0,2.1738281 2.590821,0 0,0.9775391 -2.590821,0 0,4.15625 q 0,0.9365234 0.25293,1.203125 0.259766,0.2666015 1.045899,0.2666015 l 1.291992,0 0,1.0527344 -1.291992,0 Q 37.526249,0 36.972538,-0.54003906 36.418827,-1.0869141 36.418827,-2.5224609 l 0,-4.15625 -0.922852,0 0,-0.9775391 0.922852,0 0,-2.1738281 1.264648,0 z"
           style=""
           id="path3472" /><path
           d="m 44.764141,-6.7744141 q -1.011719,0 -1.599609,0.7929688 -0.587891,0.7861328 -0.587891,2.1601562 0,1.3740235 0.581055,2.1669922 0.58789,0.78613284 1.606445,0.78613284 1.004883,0 1.592774,-0.79296874 0.58789,-0.7929688 0.58789,-2.1601563 0,-1.3603515 -0.58789,-2.1533203 -0.587891,-0.7998047 -1.592774,-0.7998047 z m 0,-1.0664062 q 1.640625,0 2.577149,1.0664062 0.936523,1.0664063 0.936523,2.953125 0,1.8798829 -0.936523,2.95312504 -0.936524,1.06640625 -2.577149,1.06640625 -1.647461,0 -2.583984,-1.06640625 -0.929688,-1.07324214 -0.929688,-2.95312504 0,-1.8867187 0.929688,-2.953125 0.936523,-1.0664062 2.583984,-1.0664062 z"
           style=""
           id="path3474" /><path
           d="m 55.088142,-1.1484375 0,4.0605469 -1.264648,0 0,-10.5683594 1.264648,0 0,1.1621094 q 0.396485,-0.6835938 0.998047,-1.0117188 0.608399,-0.3349609 1.449219,-0.3349609 1.394531,0 2.262695,1.1074219 0.875,1.1074218 0.875,2.9121093 0,1.8046875 -0.875,2.91210941 -0.868164,1.10742188 -2.262695,1.10742188 -0.84082,0 -1.449219,-0.328125 -0.601562,-0.33496094 -0.998047,-1.01855469 z m 4.279297,-2.6728516 q 0,-1.3876953 -0.574218,-2.1738281 -0.567383,-0.7929687 -1.56543,-0.7929687 -0.998047,0 -1.572266,0.7929687 -0.567383,0.7861328 -0.567383,2.1738281 0,1.3876953 0.567383,2.1806641 0.574219,0.78613281 1.572266,0.78613281 0.998047,0 1.56543,-0.78613281 0.574218,-0.7929688 0.574218,-2.1806641 z"
           style=""
           id="path3476" /><path
           d="m 68.841599,-4.6210937 0,4.6210937 -1.257813,0 0,-4.5800781 q 0,-1.0869141 -0.423828,-1.6269531 -0.423828,-0.5400391 -1.271484,-0.5400391 -1.018555,0 -1.606446,0.6494141 -0.58789,0.649414 -0.58789,1.7705078 l 0,4.3271484 -1.264649,0 0,-10.636719 1.264649,0 0,4.1699221 q 0.451171,-0.6904297 1.05957,-1.0322265 0.615234,-0.3417969 1.415039,-0.3417969 1.319336,0 1.996094,0.8203125 0.676758,0.8134766 0.676758,2.3994141 z"
           style=""
           id="path3478" /><path
           d="m 73.784142,-6.7744141 q -1.011719,0 -1.59961,0.7929688 -0.58789,0.7861328 -0.58789,2.1601562 0,1.3740235 0.581054,2.1669922 0.587891,0.78613284 1.606446,0.78613284 1.004882,0 1.592773,-0.79296874 0.587891,-0.7929688 0.587891,-2.1601563 0,-1.3603515 -0.587891,-2.1533203 -0.587891,-0.7998047 -1.592773,-0.7998047 z m 0,-1.0664062 q 1.640625,0 2.577148,1.0664062 0.936523,1.0664063 0.936523,2.953125 0,1.8798829 -0.936523,2.95312504 -0.936523,1.06640625 -2.577148,1.06640625 -1.647461,0 -2.583985,-1.06640625 -0.929687,-1.07324214 -0.929687,-2.95312504 0,-1.8867187 0.929687,-2.953125 0.936524,-1.0664062 2.583985,-1.0664062 z"
           style=""
           id="path3480" /><path
           d="m 85.689606,-4.6210937 0,4.6210937 -1.257813,0 0,-4.5800781 q 0,-1.0869141 -0.423828,-1.6269531 -0.423828,-0.5400391 -1.271484,-0.5400391 -1.018555,0 -1.606446,0.6494141 -0.58789,0.649414 -0.58789,1.7705078 l 0,4.3271484 -1.264649,0 0,-7.65625 1.264649,0 0,1.1894531 q 0.451172,-0.6904297 1.05957,-1.0322265 0.615234,-0.3417969 1.415039,-0.3417969 1.319336,0 1.996094,0.8203125 0.676758,0.8134766 0.676758,2.3994141 z"
           style=""
           id="path3482" /><path
           d="m 94.17218,-4.1425781 0,0.6152343 -5.783203,0 q 0.08203,1.2988282 0.779297,1.9824219 0.704101,0.67675784 1.955078,0.67675784 0.724609,0 1.401367,-0.17773434 0.683594,-0.1777344 1.353516,-0.5332032 l 0,1.18945316 q -0.676758,0.28710938 -1.387695,0.4375 -0.710938,0.15039063 -1.442383,0.15039063 -1.832032,0 -2.905274,-1.06640625 -1.066406,-1.06640624 -1.066406,-2.88476564 0,-1.8798828 1.011719,-2.9804687 1.018554,-1.1074219 2.741211,-1.1074219 1.544922,0 2.440429,0.9980469 0.902344,0.9912109 0.902344,2.7001953 z m -1.257812,-0.3691406 q -0.01367,-1.0322266 -0.581055,-1.647461 -0.560547,-0.6152344 -1.490234,-0.6152344 -1.052735,0 -1.688477,0.5947266 -0.628906,0.5947266 -0.724609,1.6748047 l 4.484375,-0.00684 z"
           style=""
           id="path3484" /></g></g></g></svg>